Coordinates
version=1
nRows=49
nColumns=12
inDegrees=yes

Units are S.I. units (second, meters, Newtons, ...)
Angles are in degrees

endheader
time	SC_y	SC_z	SC_x	AC_y	AC_z	AC_x	GH_y	GH_z	GH_yy	EL_x	PS_y
       0.0              -16.89          36.53          44.58          50.59        -0.4748          12.88         -78.69          80.23          160.8          89.36          131.7
   0.04101               -16.9          36.53          44.58          50.59        -0.4773          12.88          -78.7          80.22          160.7          89.36          131.7
   0.08202               -16.9          36.52          44.58          50.59        -0.4799          12.88         -78.71          80.22          160.7          89.37          131.7
     0.123              -16.91          36.52          44.58          50.59        -0.4827          12.88         -78.72          80.21          160.7          89.37          131.7
     0.164              -16.92          36.51          44.58          50.59        -0.4857          12.88         -78.73           80.2          160.6          89.37          131.7
    0.2051              -16.93           36.5          44.58          50.59        -0.4889          12.87         -78.74           80.2          160.6          89.37          131.7
    0.2461              -16.93          36.49          44.58          50.59        -0.4923          12.87         -78.75          80.19          160.6          89.37          131.7
    0.2871              -16.94          36.49          44.59          50.59        -0.4959          12.87         -78.76          80.18          160.5          89.37          131.7
    0.3281              -16.95          36.48          44.59          50.58        -0.4998          12.87         -78.78          80.17          160.5          89.37          131.7
    0.3691              -16.96          36.47          44.59          50.58         -0.504          12.86         -78.79          80.16          160.4          89.37          131.7
    0.4101              -16.97          36.46          44.59          50.58        -0.5085          12.86          -78.8          80.15          160.4          89.37          131.7
    0.4511              -16.99          36.45          44.59          50.58        -0.5133          12.86         -78.82          80.14          160.3          89.38          131.7
    0.4921               -17.0          36.44          44.59          50.58        -0.5185          12.85         -78.84          80.13          160.2          89.38          131.7
    0.5332              -17.01          36.43           44.6          50.58        -0.5241          12.85         -78.86          80.12          160.2          89.38          131.6
    0.5742              -17.03          36.41           44.6          50.57        -0.5302          12.84         -78.88           80.1          160.1          89.38          131.6
    0.6152              -17.04           36.4           44.6          50.57        -0.5368          12.84          -78.9          80.09          160.0          89.38          131.6
    0.6562              -17.06          36.38           44.6          50.57         -0.544          12.83         -78.92          80.07          159.9          89.38          131.6
    0.6972              -17.08          36.37          44.61          50.57        -0.5518          12.83         -78.95          80.06          159.8          89.39          131.6
    0.7382               -17.1          36.35          44.61          50.56        -0.5603          12.82         -78.98          80.04          159.7          89.39          131.6
    0.7792              -17.12          36.33          44.61          50.56        -0.5696          12.82         -79.01          80.02          159.6          89.39          131.6
    0.8202              -17.15           36.3          44.62          50.56        -0.5799          12.81         -79.04          79.99          159.5           89.4          131.5
    0.8612              -17.18          36.28          44.62          50.55        -0.5912           12.8         -79.08          79.97          159.3           89.4          131.5
    0.9023              -17.21          36.25          44.63          50.55        -0.6036          12.79         -79.12          79.94          159.2           89.4          131.5
    0.9433              -17.24          36.22          44.63          50.55        -0.6174          12.78         -79.16          79.91          159.0          89.41          131.5
    0.9843              -17.28          36.19          44.64          50.54        -0.6328          12.77         -79.22          79.87          158.8          89.41          131.4
     1.025              -17.32          36.15          44.65          50.53        -0.6499          12.76         -79.27          79.84          158.6          89.42          131.4
     1.066              -17.37          36.11          44.65          50.53        -0.6691          12.74         -79.34          79.79          158.3          89.42          131.4
     1.107              -17.42          36.06          44.66          50.52        -0.6907          12.73         -79.41          79.74          158.1          89.43          131.3
     1.148              -17.48          36.01          44.67          50.51        -0.7151          12.71         -79.49          79.69          157.8          89.44          131.3
     1.189              -17.55          35.95          44.68           50.5        -0.7428          12.69         -79.58          79.63          157.4          89.44          131.2
      1.23              -17.63          35.88           44.7          50.49        -0.7744          12.67         -79.68          79.56          157.0          89.45          131.2
     1.271              -17.72           35.8          44.71          50.48        -0.8106          12.64          -79.8          79.48          156.6          89.46          131.1
     1.312              -17.82          35.71          44.73          50.47        -0.8525          12.61         -79.94          79.38          156.0          89.48          131.0
     1.353              -17.94           35.6          44.75          50.45        -0.9012          12.58          -80.1          79.27          155.4          89.49          130.9
     1.394              -18.08          35.48          44.77          50.43        -0.9581          12.53         -80.29          79.14          154.7          89.51          130.8
     1.435              -18.24          35.33           44.8          50.41         -1.025          12.49         -80.51          78.99          153.9          89.53          130.7
     1.476              -18.44          35.16          44.83          50.38         -1.105          12.43         -80.78          78.82          152.9          89.55          130.5
     1.517              -18.67          34.95          44.87          50.35         -1.201          12.36         -81.09           78.6          151.7          89.58          130.4
     1.558              -18.96           34.7          44.91          50.31         -1.316          12.27         -81.48          78.34          150.2          89.61          130.1
     1.599               -19.3          34.39          44.97          50.26         -1.457          12.17         -81.95          78.03          148.5          89.65          129.9
      1.64              -19.73          34.01          45.04          50.21         -1.632          12.04         -82.52          77.63          146.3          89.71          129.5
     1.681              -20.26          33.54          45.13          50.13         -1.849          11.89         -83.24          77.15          143.5          89.77          129.1
     1.722              -20.94          32.94          45.24          50.04         -2.123          11.69         -84.15          76.53          140.1          89.85          128.6
     1.763              -21.79          32.19          45.38          49.93         -2.471          11.44          -85.3          75.75          135.7          89.95          127.9
     1.805              -22.89          31.22          45.55          49.78         -2.917          11.11         -86.78          74.75          130.1          90.09          127.1
     1.846              -24.29          29.97          45.78          49.58         -3.489           10.7         -88.67          73.47          123.0          90.26          126.0
     1.887              -26.08          28.38          46.07          49.34          -4.22          10.17         -91.09          71.83          113.8          90.47          124.6
     1.928              -28.34          26.38          46.44          49.03         -5.138            9.5         -94.13          69.77          102.3          90.74          122.8
     1.969              -31.08          23.94          46.89          48.66         -6.258          8.687         -97.83          67.26          88.25          91.07          120.7
